<?xml version="1.0" encoding="utf-8"?>
<!-- Generator: Adobe Illustrator 15.0.0, SVG Export Plug-In . SVG Version: 6.00 Build 0)  -->
<!DOCTYPE svg PUBLIC "-//W3C//DTD SVG 1.1//EN" "http://www.w3.org/Graphics/SVG/1.1/DTD/svg11.dtd">
<svg version="1.1" id="Livello_1" xmlns="http://www.w3.org/2000/svg" xmlns:xlink="http://www.w3.org/1999/xlink" x="0px" y="0px"
	 width="225.816px" height="153.453px" viewBox="0 0 225.816 153.453" enable-background="new 0 0 225.816 153.453"
	 xml:space="preserve">
<g>
	<path fill="#D9D3CC" d="M107.209-1.179c7.484,0,12.486,5.396,12.486,12.935c0,7.538-5.002,12.931-12.486,12.931
		c-7.483,0-12.486-5.393-12.486-12.931C94.723,4.217,99.726-1.179,107.209-1.179z M107.209,18.53c1.93,0,4.898-1.277,4.898-6.774
		c0-5.498-2.968-6.781-4.898-6.781c-1.932,0-4.898,1.283-4.898,6.781C102.311,17.253,105.277,18.53,107.209,18.53z"/>
	<path fill="#D9D3CC" d="M122.935-0.001h7.762l7.173,13.21h0.071v-13.21h7.173v24.688h-7.38L130.179,11.2h-0.07v13.486h-7.174
		V-0.001z"/>
</g>
<g>
	<path fill="#D9D3CC" d="M94.577,31.08h7.59v8.574h7.106V31.08h7.587v24.688h-7.587v-9.787h-7.106v9.787h-7.59V31.08z"/>
	<path fill="#D9D3CC" d="M120.757,31.08h7.589v24.688h-7.589V31.08z"/>
	<path fill="#D9D3CC" d="M150.28,52.655c-1.687,2.182-4.31,3.113-6.999,3.113c-7.277,0-11.762-5.668-11.762-12.691
		c0-9.405,6.586-13.175,12.139-13.175c6.28,0,10.246,3.425,11.35,9.233h-7.278c-0.274-1.799-1.792-3.079-3.585-3.079
		c-5.21,0-5.038,5.498-5.038,7.19c0,2.322,0.933,6.365,5.556,6.365c1.756,0,3.551-0.896,3.932-2.73h-3.348V41.59h10.072v13.591
		h-4.794L150.28,52.655z"/>
	<path fill="#D9D3CC" d="M159.078,31.08h7.588v8.574h7.105V31.08h7.586v24.688h-7.586v-9.787h-7.105v9.787h-7.588V31.08z"/>
</g>
<g>
	<path fill="#D9D3CC" d="M0,0h7.759l7.177,13.21h0.068V0h7.173v24.688h-7.381L7.243,11.201H7.174v13.486H0V0z"/>
	<path fill="#D9D3CC" d="M37.905-1.178c7.484,0,12.487,5.396,12.487,12.935c0,7.538-5.002,12.931-12.487,12.931
		s-12.485-5.393-12.485-12.931C25.419,4.218,30.42-1.178,37.905-1.178z M37.905,18.531c1.933,0,4.896-1.277,4.896-6.774
		c0-5.498-2.963-6.781-4.896-6.781s-4.897,1.283-4.897,6.781C33.008,17.254,35.972,18.531,37.905,18.531z"/>
	<path fill="#D9D3CC" d="M58.84,6.328h-6.897V0h21.384v6.328H66.43v18.359h-7.59V6.328z"/>
</g>
<g>
	<path fill="#D9D3CC" d="M6.941,37.408H0.044v-6.329h21.383v6.329h-6.898v18.36H6.941V37.408z"/>
	<path fill="#D9D3CC" d="M24.219,31.079h7.591v8.578h7.105v-8.578h7.589v24.689h-7.589v-9.784h-7.105v9.784h-7.591V31.079z"/>
	<path fill="#D9D3CC" d="M50.4,31.079h20.384v6.329H57.989v3.079h11.623v5.878H57.989v3.075h13.176v6.328H50.4V31.079z"/>
</g>
<g>
	<path fill="#D9D3CC" d="M7.589,79.325c0,0.623,0.101,1.174,0.273,1.626c0.554,1.487,2.208,1.797,3.622,1.797
		c1.242,0,3.14-0.415,3.14-2.249c0-1.279-1.07-1.623-5.313-2.831c-3.897-1.108-8.347-2.182-8.347-7.161
		c0-5.706,4.866-8.16,9.933-8.16c5.345,0,10.073,2.04,10.282,8.059h-7.177c0.138-0.936-0.273-1.558-0.894-1.973
		c-0.622-0.449-1.484-0.622-2.244-0.622c-1.035,0-2.725,0.276-2.725,1.659c0.135,1.766,3.658,2.144,7.139,3.113
		c3.487,0.968,6.932,2.595,6.932,7.121c0,6.436-5.896,8.508-11.382,8.508c-2.795,0-10.761-1.006-10.829-8.887H7.589z"/>
	<path fill="#D9D3CC" d="M30.32,69.851h-6.9v-6.326h21.384v6.326h-6.899v18.361H30.32V69.851z"/>
	<path fill="#D9D3CC" d="M47.598,63.524h14.451c4.313,0,8.035,2.385,8.035,7.055c0,2.557-1.169,5.255-3.688,6.188
		c2.069,0.795,3.345,3.075,3.624,6.152c0.103,1.211,0.136,4.149,0.827,5.292h-7.588c-0.38-1.243-0.517-2.524-0.622-3.804
		c-0.209-2.349-0.413-4.81-3.416-4.81h-4.034v8.613h-7.588V63.524z M55.186,74.313h3.966c1.417,0,3.348-0.243,3.348-2.457
		c0-1.557-0.865-2.453-3.759-2.453h-3.555V74.313z"/>
	<path fill="#D9D3CC" d="M73.156,63.524H93.54v6.326H80.744v3.079h11.625v5.876H80.744v3.079h13.173v6.327H73.156V63.524z"/>
	<path fill="#D9D3CC" d="M97.438,63.524h20.383v6.326h-12.795v3.079h11.624v5.876h-11.624v3.079h13.174v6.327H97.438V63.524z"/>
	<path fill="#D9D3CC" d="M127.48,69.851h-6.898v-6.326h21.383v6.326h-6.896v18.361h-7.588V69.851z"/>
	<path fill="#D9D3CC" d="M141.142,81.366h7.172v6.846h-7.172V81.366z"/>
</g>
<g>
	<path fill="#D9D3CC" d="M40.719,115.29c-1.915,0-4.847,1.265-4.847,6.709c0,5.439,2.933,6.706,4.847,6.706
		c1.912,0,4.848-1.267,4.848-6.706C45.567,116.555,42.631,115.29,40.719,115.29z"/>
	<path fill="#D9D3CC" d="M157.667,118.703l-51.74,2.968c-0.555-0.213-1.088-0.419-1.598-0.618c-1.536-1.565-3.91-2.84-5.528-3.596
		c0.186-2.503,0.53-4.726,1.117-6.254l-15-16.007c0,0-76.25,0-85.25,0c0,0,1.835,56.507,0,58.257c0,0,82.25-0.5,84.75,0
		l14.875-16.625c0,0-0.26-2.647-0.458-6.305c1.935-0.133,4.168-0.292,6.614-0.469c3.615,1.494,9.344,3.799,12.594,4.773
		l29.125,10.375h1.5c0,0,0-6.25,0-7.75c0,0-0.75-0.875-2.125-1.125c0,0-10.518-3.672-21.76-7.714
		c16.487-1.251,32.885-2.536,32.885-2.536V118.703z M14.814,134.794c-7.887,0-12.355-5.577-12.355-12.795
		c0-7.702,4.846-12.801,12.355-12.801c6.688,0.036,10.377,3.557,11.023,9.687h-7.304c-0.136-0.891-0.816-3.595-3.925-3.595
		c-3.516,0-4.643,3.423-4.643,6.709c0,3.281,1.127,6.706,4.643,6.706c2.525,0,3.514-1.782,3.958-4.071h7.377
		C25.943,129.56,21.947,134.794,14.814,134.794z M40.719,134.794c-7.405,0-12.352-5.338-12.352-12.795
		c0-7.463,4.947-12.801,12.352-12.801c7.407,0,12.359,5.338,12.359,12.801C53.078,129.456,48.126,134.794,40.719,134.794z
		 M84.618,134.796h-7.1v-15.677h-0.069l-4.232,15.677h-5.599l-4.231-15.677h-0.068v15.677h-7.099V110.36h10.683l3.481,14.373h0.067
		l3.481-14.373h10.687V134.796z"/>
</g>
<rect x="165.781" y="88.212" fill="#D9D3CC" width="16.1" height="65.241"/>
<rect x="187.749" y="63.524" fill="#D9D3CC" width="16.1" height="89.929"/>
<rect x="209.716" y="42.835" fill="#D9D3CC" width="16.1" height="110.618"/>
</svg>
